<?xml version="1.0" standalone="no"?>
<!DOCTYPE svg PUBLIC "-//W3C//DTD SVG 20010904//EN"
 "http://www.w3.org/TR/2001/REC-SVG-20010904/DTD/svg10.dtd">
<svg version="1.0" xmlns="http://www.w3.org/2000/svg"
 width="1280.000000pt" height="1280.000000pt" viewBox="0 0 1280.000000 1280.000000"
 preserveAspectRatio="xMidYMid meet">
<g transform="translate(0.000000,1280.000000) scale(0.100000,-0.100000)"
fill="#000000" stroke="none">
<path d="M6045 11673 c-277 -22 -482 -50 -715 -98 -2371 -488 -4128 -2564
-4208 -4973 -23 -668 64 -1275 268 -1882 599 -1784 2123 -3130 3960 -3499 356
-71 557 -92 960 -98 358 -6 565 6 849 47 1184 173 2266 738 3092 1616 875 930
1385 2150 1427 3411 23 671 -64 1280 -269 1887 -276 815 -741 1543 -1369 2142
-871 831 -1985 1333 -3190 1439 -157 13 -675 19 -805 8z m600 -793 c517 -31
1008 -143 1472 -336 1316 -548 2297 -1689 2638 -3069 177 -716 177 -1434 0
-2150 -197 -796 -601 -1512 -1185 -2095 -1115 -1115 -2715 -1562 -4245 -1185
-726 179 -1374 526 -1950 1045 -318 286 -649 699 -871 1085 -201 352 -360 749
-459 1150 -225 913 -162 1853 185 2729 284 719 768 1369 1388 1863 132 106
406 292 557 379 743 425 1624 634 2470 584z"/>
<path d="M5720 9354 c-43 -19 -67 -40 -89 -79 -14 -27 -16 -128 -21 -1055 l-5
-1025 -1025 -5 c-1110 -5 -1053 -2 -1102 -57 -48 -53 -48 -51 -48 -738 0 -692
-1 -672 49 -729 47 -53 -8 -51 1101 -56 l1025 -5 5 -1025 c5 -1110 2 -1053 57
-1102 53 -48 51 -48 733 -48 682 0 680 0 733 48 55 49 52 -8 57 1102 l5 1025
1025 5 c1110 5 1053 2 1102 57 48 53 48 51 48 735 0 610 -1 645 -19 685 -12
26 -35 52 -62 70 l-43 28 -1025 5 -1026 5 -5 1025 c-5 1110 -2 1053 -57 1102
-53 48 -51 48 -735 48 -550 -1 -648 -3 -678 -16z"/>
</g>
</svg>
